<svg xmlns="http://www.w3.org/2000/svg" width="64" height="64" viewBox="0 0 64 64"><linearGradient id="1f60a-a" gradientUnits="userSpaceOnUse" x1="32.001" y1="62" x2="32.001" y2="2.001"><stop offset="0" stop-color="#ffa027"/><stop offset=".272" stop-color="#ffc151"/><stop offset=".763" stop-color="#ffc93f"/><stop offset="1" stop-color="#ffe261"/></linearGradient><circle fill="url(#1f60a-a)" cx="32" cy="32" r="30"/><radialGradient id="1f60a-b" cx="14.19" cy="32.254" r="10" gradientUnits="userSpaceOnUse"><stop offset="0" stop-color="#f18d84"/><stop offset=".251" stop-color="#f29180" stop-opacity=".749"/><stop offset=".512" stop-color="#f49e73" stop-opacity=".488"/><stop offset=".775" stop-color="#f8b25f" stop-opacity=".225"/><stop offset="1" stop-color="#fdca47" stop-opacity="0"/></radialGradient><circle fill="url(#1f60a-b)" cx="14.189" cy="32.254" r="10"/><radialGradient id="1f60a-c" cx="49.81" cy="32" r="10" gradientUnits="userSpaceOnUse"><stop offset="0" stop-color="#f18d84"/><stop offset=".251" stop-color="#f29180" stop-opacity=".749"/><stop offset=".512" stop-color="#f49e73" stop-opacity=".488"/><stop offset=".775" stop-color="#f8b25f" stop-opacity=".225"/><stop offset="1" stop-color="#fdca47" stop-opacity="0"/></radialGradient><circle fill="url(#1f60a-c)" cx="49.811" cy="32" r="10"/><path fill="#302C3B" d="M36.225 24.804c3.775-4.206 9.645-4.208 13.422 0 .578.644.922-.052.738-.598-3.67-10.858-11.23-10.858-14.9 0-.184.546.16 1.241.74.598zM14.355 24.804c3.777-4.206 9.645-4.208 13.422 0 .578.644.924-.052.738-.598-3.67-10.858-11.23-10.858-14.9 0-.183.546.16 1.241.74.598zM44.523 36.392c-7.629 5.491-17.426 5.488-25.051 0-1.08-.776-1.725.063-1.379.722 5.855 11.193 21.957 11.191 27.813 0 .344-.66-.299-1.499-1.383-.722z"/></svg>