<svg xmlns="http://www.w3.org/2000/svg" width="64" height="64" viewBox="0 0 64 64"><linearGradient id="1f60d-a" gradientUnits="userSpaceOnUse" x1="32.001" y1="62" x2="32.001" y2="2.001"><stop offset="0" stop-color="#ffa027"/><stop offset=".272" stop-color="#ffc151"/><stop offset=".763" stop-color="#ffc93f"/><stop offset="1" stop-color="#ffe261"/></linearGradient><circle fill="url(#1f60d-a)" cx="32" cy="32" r="30"/><path fill="#302C3B" d="M51 37.789c0-.893-.528-2.01-2.037-2.297C45.092 34.756 39.374 34 31.999 34h-.002c-7.367 0-13.09.756-16.961 1.492-1.507.287-2.036 1.404-2.036 2.297C13 45.867 19.271 54 31.997 54h.002C44.729 54 51 45.867 51 37.789z"/><linearGradient id="1f60d-b" gradientUnits="userSpaceOnUse" x1="32.001" y1="51.75" x2="32.001" y2="48.325"><stop offset="0" stop-color="#d63324"/><stop offset=".08" stop-color="#dc3f31"/><stop offset=".247" stop-color="#e75346"/><stop offset=".435" stop-color="#ee6155"/><stop offset=".657" stop-color="#f3695d"/><stop offset="1" stop-color="#f46c60"/></linearGradient><path fill="url(#1f60d-b)" d="M23.999 50.082c2.314 1.051 4.98 1.668 8 1.668 3.022 0 5.688-.617 8.002-1.668 0 0-4.001-3.082-8.002-1.082-3.999-2-8 1.082-8 1.082z"/><linearGradient id="1f60d-c" gradientUnits="userSpaceOnUse" x1="15.999" y1="39.5" x2="47.999" y2="39.5"><stop offset="0" stop-color="#cfd7e6"/><stop offset=".037" stop-color="#dae0ec"/><stop offset=".126" stop-color="#eef1f6"/><stop offset=".215" stop-color="#fbfcfd"/><stop offset=".3" stop-color="#fff"/><stop offset=".7" stop-color="#fff"/><stop offset=".785" stop-color="#fbfcfd"/><stop offset=".874" stop-color="#eef1f6"/><stop offset=".963" stop-color="#dae0ec"/><stop offset="1" stop-color="#cfd7e6"/></linearGradient><path fill="url(#1f60d-c)" d="M46.504 38.037C43.995 37.66 38.688 37 31.999 37c-6.688 0-11.994.66-14.505 1.037-1.478.221-1.567.76-1.466 1.52.063.451.157 1 .303 1.588.161.652.291.824 1.447.836 2.221.027 26.222.027 28.443 0 1.156-.012 1.28-.184 1.446-.836.145-.588.242-1.137.3-1.588.107-.76.013-1.299-1.463-1.52z"/><radialGradient id="1f60d-d" cx="-844.058" cy="870.393" r="5.348" gradientTransform="matrix(2.8617 .5046 .5364 -3.0419 1997.326 3082.756)" gradientUnits="userSpaceOnUse"><stop offset=".418" stop-color="#ff1c23"/><stop offset=".633" stop-color="#f8151a"/><stop offset=".986" stop-color="#e40201"/><stop offset="1" stop-color="#e30100"/></radialGradient><path fill="url(#1f60d-d)" d="M48.399 10.813c-2.685-6.777-13.514-6.225-14.868 1.454-.908 5.15 3.285 9.443 11.313 18.701 10.711-5.953 16.122-8.553 17.03-13.704 1.355-7.678-8.635-11.901-13.475-6.451z"/><radialGradient id="1f60d-e" cx="-883.086" cy="810.564" r="5.348" gradientTransform="matrix(2.8617 -.5046 -.5364 -3.0419 2977.303 2029.22)" gradientUnits="userSpaceOnUse"><stop offset=".418" stop-color="#ff1c23"/><stop offset=".633" stop-color="#f8151a"/><stop offset=".986" stop-color="#e40201"/><stop offset="1" stop-color="#e30100"/></radialGradient><path fill="url(#1f60d-e)" d="M15.599 10.813C10.759 5.362.771 9.585 2.125 17.265c.908 5.15 6.317 7.75 17.027 13.704 8.029-9.257 12.225-13.551 11.316-18.702-1.354-7.679-12.184-8.231-14.869-1.454z"/></svg>