<svg xmlns="http://www.w3.org/2000/svg" width="64" height="64" viewBox="0 0 64 64"><linearGradient id="1f621-a" gradientUnits="userSpaceOnUse" x1="88" y1="-142" x2="88" y2="-82" gradientTransform="matrix(1 0 0 -1 -56 -80)"><stop offset=".2" stop-color="#ff3e2e"/><stop offset=".523" stop-color="#fa6019"/><stop offset=".819" stop-color="#f7780a"/><stop offset="1" stop-color="#f68104"/></linearGradient><circle fill="url(#1f621-a)" cx="32" cy="32" r="30"/><path fill="#302C3B" d="M22.77 49.527c5.623-4.658 12.843-4.656 18.462 0 .797.658.895-.053.648-.61-4.16-9.5-15.602-9.498-19.762 0-.245.56-.147 1.271.652.61zM17.614 31.572a4.5 4.5 0 1 0 9 0 4.5 4.5 0 0 0-9 0z"/><path fill="#302C3B" d="M25.961 33.906c-3.95-4.817-9.183-7.976-14.263-10.772-.339-.287-.143-.853.363-.761 3.098.564 10.994 2.419 13.494 4.585 2.31 2.002 1.34 5.523.406 6.948zM41.885 27.072a4.5 4.5 0 0 0 0 9 4.5 4.5 0 1 0 0-9z"/><path fill="#302C3B" d="M38.445 26.958c2.5-2.166 10.395-4.021 13.494-4.585.506-.092.701.474.361.761-5.078 2.797-10.313 5.955-14.262 10.772-.933-1.425-1.903-4.946.407-6.948z"/></svg>