<svg xmlns="http://www.w3.org/2000/svg" width="64" height="64" viewBox="0 0 64 64"><linearGradient id="1f631-a" gradientUnits="userSpaceOnUse" x1="32.001" y1="59.822" x2="32.001" y2="2.001"><stop offset="0" stop-color="#ffa027"/><stop offset=".436" stop-color="#ffc548"/><stop offset="1" stop-color="#61b3ff"/></linearGradient><path fill="url(#1f631-a)" d="M32 2C16.534 2 4 14.76 4 30.5c0 3.75 1.931 4.833 1.931 4.833S21.752 50.238 25.256 56.73c2.222 4.121 11.267 4.124 13.488 0 3.502-6.494 19.325-21.397 19.325-21.397S60 34.25 60 30.5C60 14.76 47.466 2 32 2z"/><ellipse transform="rotate(-30 43.5 24.002)" fill="#FFF" cx="43.5" cy="24" rx="7.546" ry="9.432"/><ellipse transform="rotate(30.006 20.498 23.998)" fill="#FFF" cx="20.5" cy="24" rx="7.546" ry="9.431"/><linearGradient id="1f631-b" gradientUnits="userSpaceOnUse" x1="32.001" y1="55.883" x2="32.001" y2="33.883"><stop offset=".127" stop-color="#ab5c10"/><stop offset=".165" stop-color="#a25813"/><stop offset=".346" stop-color="#794921"/><stop offset=".524" stop-color="#593c2d"/><stop offset=".696" stop-color="#423335"/><stop offset=".858" stop-color="#352e39"/><stop offset="1" stop-color="#302c3b"/></linearGradient><path fill="url(#1f631-b)" d="M32 33.883c-3.418-.067-8.598 17.067-4.479 20.915 1.547 1.446 7.41 1.446 8.957 0 4.12-3.848-1.06-20.983-4.478-20.915z"/><path fill="#FFF" d="M5 35.131c0-3.788 4.557-3.753 5.075 0 1.631 11.803 6.108 9.9 10.469 13.829 2.783 2.508 3.594 4.939 3.594 12.04H13.673v-5.699C11.377 54.073 5 52.304 5 35.131z"/><path fill="#99A8AE" d="M18.122 45.876c-4.146-2.81-6.141-4.254-7.057-10.882-.35-2.536-2.18-3.691-3.73-3.691C5.678 31.303 4 32.618 4 35.131c0 15.384 6.117 19.474 8.672 20.773L12.673 62h12.465c0-10.734-2.721-13.214-7.016-16.124zM6 35.131c0-1.348.689-1.828 1.335-1.828.735 0 1.563.607 1.75 1.965 1.103 7.98 3.689 9.4 7.915 12.265 3.611 2.444 6.027 4.355 6.132 12.468h-8.459v-5.299C11.742 53.064 6 50.236 6 35.131z"/><path fill="#FFF" d="M59 35.131c0-3.788-4.557-3.753-5.074 0-1.632 11.804-6.108 9.899-10.469 13.829-2.783 2.508-3.594 4.939-3.594 12.04h10.465v-5.699C52.625 54.072 59 52.305 59 35.131z"/><path fill="#99A8AE" d="M38.863 62h12.465v-6.096C53.886 54.604 60 50.516 60 35.131c0-2.513-1.678-3.828-3.334-3.828-1.551 0-3.381 1.155-3.73 3.691-.917 6.628-2.913 8.073-7.057 10.882-4.295 2.91-7.016 5.39-7.016 16.124zm10.465-7.299V60h-8.459c.104-8.112 2.52-10.023 6.131-12.468 4.229-2.865 6.813-4.284 7.916-12.265.188-1.357 1.014-1.965 1.75-1.965.645 0 1.334.48 1.334 1.828 0 15.106-5.742 17.934-8.672 19.571z"/></svg>