<svg xmlns="http://www.w3.org/2000/svg" width="64" height="64" viewBox="0 0 64 64"><ellipse fill="#0FB4D4" cx="45.006" cy="60.197" rx="16.994" ry="1.803"/><ellipse fill="#0FB4D4" cx="18.994" cy="60.197" rx="16.994" ry="1.803"/><linearGradient id="1f62d-a" gradientUnits="userSpaceOnUse" x1="32.001" y1="62" x2="32.001" y2="2.001"><stop offset="0" stop-color="#ffa027"/><stop offset=".272" stop-color="#ffc151"/><stop offset=".763" stop-color="#ffc93f"/><stop offset="1" stop-color="#ffe261"/></linearGradient><circle fill="url(#1f62d-a)" cx="32" cy="32" r="30"/><path fill="#302C3B" d="M39 42.119c0 9.674-14 9.674-14 0v-1.238c0-9.674 14-9.674 14 0v1.238z"/><linearGradient id="1f62d-b" gradientUnits="userSpaceOnUse" x1="27.332" y1="36.482" x2="36.668" y2="36.482"><stop offset="0" stop-color="#cfd7e6"/><stop offset=".037" stop-color="#dae0ec"/><stop offset=".126" stop-color="#eef1f6"/><stop offset=".215" stop-color="#fbfcfd"/><stop offset=".3" stop-color="#fff"/><stop offset=".7" stop-color="#fff"/><stop offset=".785" stop-color="#fbfcfd"/><stop offset=".874" stop-color="#eef1f6"/><stop offset=".963" stop-color="#dae0ec"/><stop offset="1" stop-color="#cfd7e6"/></linearGradient><path fill="url(#1f62d-b)" d="M27.333 38c.932-1.813 2.674-3.035 4.666-3.035 1.996 0 3.736 1.221 4.669 3.035h-9.335z"/><linearGradient id="1f62d-c" gradientUnits="userSpaceOnUse" x1="32.001" y1="47.857" x2="32.001" y2="45.259"><stop offset="0" stop-color="#d63324"/><stop offset=".08" stop-color="#dc3f31"/><stop offset=".247" stop-color="#e75346"/><stop offset=".435" stop-color="#ee6155"/><stop offset=".657" stop-color="#f3695d"/><stop offset="1" stop-color="#f46c60"/></linearGradient><path fill="url(#1f62d-c)" d="M28.333 46.592c1.061.799 2.283 1.266 3.668 1.266 1.384 0 2.607-.467 3.667-1.266 0 0-1.834-2.338-3.667-.82-1.834-1.518-3.668.82-3.668.82z"/><path fill="#917524" d="M11.456 16.17c5.242.236 11.211-1.973 13.488-4.766.477-.59-.721-3.061-1.184-2.621-3.561 3.379-8.396 5.719-13.248 5.811-.65.011.156 1.541.944 1.576zM52.543 16.168c-5.242.238-11.209-1.971-13.486-4.764-.48-.588.721-3.063 1.184-2.621 3.561 3.375 8.396 5.719 13.246 5.809.652.012-.155 1.541-.944 1.576z"/><linearGradient id="1f62d-d" gradientUnits="userSpaceOnUse" x1="48" y1="21.125" x2="48" y2="60.801"><stop offset="0" stop-color="#bfecff"/><stop offset=".04" stop-color="#a9e5ff"/><stop offset=".115" stop-color="#75d6ff"/><stop offset=".231" stop-color="#71d5fd"/><stop offset=".356" stop-color="#64d0f8"/><stop offset=".486" stop-color="#4ec9ef"/><stop offset=".618" stop-color="#30bfe2"/><stop offset=".733" stop-color="#0fb4d4"/></linearGradient><path fill="url(#1f62d-d)" d="M44 23.051v37.75h8V25.506c-.008-.007-.025-.005-.025-.016 0-1.224-7.975-3.443-7.975-2.439z"/><linearGradient id="1f62d-e" gradientUnits="userSpaceOnUse" x1="251.56" y1="21.125" x2="251.56" y2="60.801" gradientTransform="matrix(-1 0 0 1 267.56 0)"><stop offset="0" stop-color="#bfecff"/><stop offset=".04" stop-color="#a9e5ff"/><stop offset=".115" stop-color="#75d6ff"/><stop offset=".231" stop-color="#71d5fd"/><stop offset=".356" stop-color="#64d0f8"/><stop offset=".486" stop-color="#4ec9ef"/><stop offset=".618" stop-color="#30bfe2"/><stop offset=".733" stop-color="#0fb4d4"/></linearGradient><path fill="url(#1f62d-e)" d="M20 23.051v37.75h-8V25.506c.009-.007.025-.005.025-.016.001-1.224 7.975-3.443 7.975-2.439z"/><path fill="#302C3B" d="M27.239 25.49c-4.281-3.271-10.932-3.271-15.213 0-.654.502-1.045-.041-.838-.465 4.16-8.445 12.729-8.445 16.887 0 .211.424-.18.967-.836.465zM36.762 25.49c4.281-3.271 10.932-3.271 15.213 0 .654.502 1.045-.041.838-.465-4.16-8.445-12.729-8.445-16.887 0-.211.424.179.967.836.465z"/></svg>