<svg xmlns="http://www.w3.org/2000/svg" width="64" height="64" viewBox="0 0 64 64"><linearGradient id="1f607-a" gradientUnits="userSpaceOnUse" x1="32.001" y1="62" x2="32.001" y2="4"><stop offset="0" stop-color="#ffa027"/><stop offset=".272" stop-color="#ffc151"/><stop offset=".763" stop-color="#ffc93f"/><stop offset="1" stop-color="#ffe261"/></linearGradient><circle fill="url(#1f607-a)" cx="32" cy="33" r="29"/><radialGradient id="1f607-b" cx="14.19" cy="38.254" r="10" gradientUnits="userSpaceOnUse"><stop offset="0" stop-color="#f18d84"/><stop offset=".251" stop-color="#f29180" stop-opacity=".749"/><stop offset=".512" stop-color="#f49e73" stop-opacity=".488"/><stop offset=".775" stop-color="#f8b25f" stop-opacity=".225"/><stop offset="1" stop-color="#fdca47" stop-opacity="0"/></radialGradient><circle fill="url(#1f607-b)" cx="14.189" cy="38.254" r="10"/><radialGradient id="1f607-c" cx="49.81" cy="38" r="10" gradientUnits="userSpaceOnUse"><stop offset="0" stop-color="#f18d84"/><stop offset=".251" stop-color="#f29180" stop-opacity=".749"/><stop offset=".512" stop-color="#f49e73" stop-opacity=".488"/><stop offset=".775" stop-color="#f8b25f" stop-opacity=".225"/><stop offset="1" stop-color="#fdca47" stop-opacity="0"/></radialGradient><circle fill="url(#1f607-c)" cx="49.811" cy="38" r="10"/><linearGradient id="1f607-d" gradientUnits="userSpaceOnUse" x1="32.001" y1="17.277" x2="32.001" y2="2"><stop offset=".412" stop-color="#00d0ff"/><stop offset=".988" stop-color="#0174c7"/></linearGradient><path fill="url(#1f607-d)" d="M2 9.639c0 4.22 10.158 7.639 30 7.639 19.84 0 30-3.419 30-7.639S51.84 2 32 2C12.158 2 2 5.419 2 9.639zm10.625-1.803c0-1.126 4.215-1.876 9.912-2.256C25.486 4.562 28.703 4 32 4s6.473.562 9.422 1.58c5.697.38 9.953 1.13 9.953 2.256 0 3.394-38.75 3.394-38.75 0z"/><path fill="#302C3B" d="M36.084 31.91c3.649-4.065 9.323-4.067 12.975 0 .559.622.891-.05.713-.578-3.547-10.496-10.855-10.496-14.403 0-.179.528.154 1.2.715.578zM14.943 31.91c3.651-4.065 9.323-4.067 12.975 0 .559.622.894-.05.714-.578-3.548-10.496-10.856-10.496-14.403 0-.178.528.154 1.2.714.578zM40.945 42.059c-5.449 4.659-12.447 4.656-17.894 0-.771-.658-1.232.053-.985.611 4.183 9.5 15.685 9.498 19.867 0 .246-.559-.213-1.27-.988-.611z"/></svg>