<svg xmlns="http://www.w3.org/2000/svg" width="64" height="64" viewBox="0 0 64 64"><linearGradient id="1f60e-a" gradientUnits="userSpaceOnUse" x1="32.001" y1="62" x2="32.001" y2="2.001"><stop offset="0" stop-color="#ffa027"/><stop offset=".272" stop-color="#ffc151"/><stop offset=".763" stop-color="#ffc93f"/><stop offset="1" stop-color="#ffe261"/></linearGradient><circle fill="url(#1f60e-a)" cx="32" cy="32" r="30"/><path fill="#302C3B" d="M35.85 21.314c-2.201 1.124-5.5 1.124-7.7 0-2.349-1.233-5.218-2.024-8.656-2.332-3.354-.301-10.467-.291-14.025.991a9.413 9.413 0 0 0-1.197.539c-.219.114-.263.198-.263.616v.54c0 1.016-.124.621.585 1.044 1.382.828 2.166 2.977 2.587 5.935.599 4.313 2.665 7.014 6.022 8.305a13.208 13.208 0 0 0 9.691-.107c1.69-.691 3.174-1.785 4.353-3.558 2.07-3.11 1.449-5.051 2.516-7.722.93-2.332 3.543-2.332 4.475 0 1.068 2.671.447 4.611 2.516 7.722 1.176 1.772 2.662 2.866 4.354 3.558a13.193 13.193 0 0 0 9.689.107c3.357-1.291 5.426-3.992 6.023-8.305.42-2.958 1.205-5.106 2.588-5.935.709-.423.584-.028.584-1.044v-.54c0-.418-.045-.502-.262-.616a9.755 9.755 0 0 0-1.197-.539c-3.559-1.282-10.672-1.293-14.025-.991-3.44.308-6.311 1.099-8.658 2.332"/><linearGradient id="1f60e-b" gradientUnits="userSpaceOnUse" x1="45.808" y1="35.384" x2="45.808" y2="21.108"><stop offset="0" stop-color="#4e5e67"/><stop offset=".234" stop-color="#50606a"/><stop offset=".381" stop-color="#576872"/><stop offset=".503" stop-color="#647681"/><stop offset=".612" stop-color="#758a95"/><stop offset=".713" stop-color="#8ca3b0"/><stop offset=".806" stop-color="#a7c2d1"/><stop offset=".893" stop-color="#c7e6f7"/><stop offset=".909" stop-color="#ceedff"/></linearGradient><path opacity=".3" fill="url(#1f60e-b)" d="M37.318 23.208c-1.338 1.188-.123 9.78 3.939 11.37 2.533.992 7.516 1.593 10.959-1.443 2.82-2.485 3.428-10.01 1.424-11.18-2.201-1.286-13.46-1.286-16.322 1.253z"/><linearGradient id="1f60e-c" gradientUnits="userSpaceOnUse" x1="18.368" y1="35.387" x2="18.368" y2="21.111"><stop offset="0" stop-color="#4e5e67"/><stop offset=".234" stop-color="#50606a"/><stop offset=".381" stop-color="#576872"/><stop offset=".503" stop-color="#647681"/><stop offset=".612" stop-color="#758a95"/><stop offset=".713" stop-color="#8ca3b0"/><stop offset=".806" stop-color="#a7c2d1"/><stop offset=".893" stop-color="#c7e6f7"/><stop offset=".909" stop-color="#ceedff"/></linearGradient><path opacity=".3" fill="url(#1f60e-c)" d="M26.857 23.211c1.337 1.188.123 9.781-3.938 11.37-2.535.992-7.517 1.593-10.961-1.442-2.819-2.485-3.428-10.01-1.424-11.181 2.203-1.286 13.462-1.286 16.323 1.253z"/><path fill="#302C3B" d="M24.659 50.003c7.75 2.006 17.272-1.016 21.294-7.304.328-.516-.184-1.063-.701-.654-4.201 3.316-13.118 5.785-19.648 3.876-2.5-.732-3.587 3.397-.945 4.082z"/></svg>