<svg xmlns="http://www.w3.org/2000/svg" width="64" height="64" viewBox="0 0 64 64"><linearGradient id="1f61a-a" gradientUnits="userSpaceOnUse" x1="32" y1="61.999" x2="32" y2="2" gradientTransform="translate(0 .001)"><stop offset="0" stop-color="#ffa027"/><stop offset=".272" stop-color="#ffc151"/><stop offset=".763" stop-color="#ffc93f"/><stop offset="1" stop-color="#ffe261"/></linearGradient><circle fill="url(#1f61a-a)" cx="31.999" cy="32" r="30"/><radialGradient id="1f61a-b" cx="-31.381" cy="4.132" r="10" gradientTransform="rotate(-10.003 204.298 -245.553)" gradientUnits="userSpaceOnUse"><stop offset="0" stop-color="#f18d84"/><stop offset=".251" stop-color="#f29180" stop-opacity=".749"/><stop offset=".512" stop-color="#f49e73" stop-opacity=".488"/><stop offset=".775" stop-color="#f8b25f" stop-opacity=".225"/><stop offset="1" stop-color="#fdca47" stop-opacity="0"/></radialGradient><circle fill="url(#1f61a-b)" cx="15.546" cy="41.252" r="10"/><radialGradient id="1f61a-c" cx="4.239" cy="3.877" r="10" gradientTransform="rotate(-10.003 204.298 -245.553)" gradientUnits="userSpaceOnUse"><stop offset="0" stop-color="#f18d84"/><stop offset=".251" stop-color="#f29180" stop-opacity=".749"/><stop offset=".512" stop-color="#f49e73" stop-opacity=".488"/><stop offset=".775" stop-color="#f8b25f" stop-opacity=".225"/><stop offset="1" stop-color="#fdca47" stop-opacity="0"/></radialGradient><circle fill="url(#1f61a-c)" cx="50.582" cy="34.816" r="10"/><path fill="#302C3B" d="M43.685 48.437c1.272-1.89-2.315-2.603-2.821-5.466-.502-2.859 2.626-4.759.782-6.096-2.205-1.604-6.013.576-8.993-1.593.374 2.119 2.559 4.117 5.882 3.533 0 0-2.098 1.308-1.479 4.827.623 3.521 3.041 4.033 3.041 4.033-3.323.586-4.691 3.211-4.319 5.33 2.059-3.052 6.382-2.31 7.907-4.568z"/><path fill="#917524" d="M8.853 24.99c2.813-4.434 8.044-8.055 11.638-8.316.76-.057 2.097 2.346 1.469 2.472-4.808.98-9.5 3.595-12.357 7.515-.383.53-1.172-1.007-.75-1.671zM53.324 17.148c-4.158-3.205-10.313-4.817-13.778-3.834-.733.207-1.169 2.921-.537 2.826 4.854-.723 10.157.13 14.185 2.836.539.366.755-1.348.13-1.828z"/><path fill="#302C3B" d="M37.32 28.99c3.648-3.964 10.196-5.12 14.981-2.641.731.38 1.022-.221.744-.604-5.563-7.593-14.001-6.106-16.63 2.933-.134.455.346.921.905.312zM12.96 33.285c3.647-3.963 10.197-5.119 14.981-2.64.73.38 1.022-.221.744-.604-5.563-7.593-14.001-6.106-16.63 2.933-.133.454.345.921.905.311z"/></svg>