<svg xmlns="http://www.w3.org/2000/svg" width="64" height="64" viewBox="0 0 64 64"><linearGradient id="1f629-a" gradientUnits="userSpaceOnUse" x1="32.001" y1="62" x2="32.001" y2="2.001"><stop offset="0" stop-color="#ffa027"/><stop offset=".272" stop-color="#ffc151"/><stop offset=".763" stop-color="#ffc93f"/><stop offset="1" stop-color="#ffe261"/></linearGradient><circle fill="url(#1f629-a)" cx="32" cy="32" r="30"/><path fill="#917524" d="M15.193 19.461c5.205-.677 10.699-3.89 12.455-7.034.369-.665-1.24-2.89-1.621-2.377-2.92 3.945-7.275 7.09-12.035 8.022-.638.125.42 1.491 1.201 1.389zM48.805 19.458c-5.205-.675-10.697-3.887-12.455-7.032-.371-.663 1.242-2.891 1.621-2.376 2.92 3.942 7.275 7.09 12.035 8.021.64.125-.42 1.491-1.201 1.387z"/><path fill="#302C3B" d="M51.719 25.414c-5.105 1.934-11.754.152-15.211-4.076-.527-.646-1.055-.242-.953.215 2.027 9.064 10.598 11.361 16.887 4.523.316-.344.062-.957-.723-.662zM27.491 21.338c-3.455 4.229-10.105 6.01-15.211 4.076-.782-.295-1.037.318-.721.662 6.289 6.838 14.858 4.541 16.887-4.523.103-.457-.425-.862-.955-.215zM32 34c-8.837-.059-15.946 4.945-16 11.168-.033 3.445 1.331 6.604 5.57 6.633 3.077.02 6.483-1.465 10.43-1.438 3.946-.027 7.353 1.457 10.43 1.438 4.239-.029 5.603-3.188 5.569-6.633C47.946 38.945 40.837 33.941 32 34z"/><linearGradient id="1f629-b" gradientUnits="userSpaceOnUse" x1="32.001" y1="49.728" x2="32.001" y2="46.181"><stop offset="0" stop-color="#d63324"/><stop offset=".08" stop-color="#dc3f31"/><stop offset=".247" stop-color="#e75346"/><stop offset=".435" stop-color="#ee6155"/><stop offset=".657" stop-color="#f3695d"/><stop offset="1" stop-color="#f46c60"/></linearGradient><path fill="url(#1f629-b)" d="M32 46.646c-4.238-2-8.481 3.082-8.481 3.082S28.8 48.396 32 48.396s8.481 1.332 8.481 1.332-4.243-5.082-8.481-3.082z"/><linearGradient id="1f629-c" gradientUnits="userSpaceOnUse" x1="21" y1="38" x2="42.999" y2="38"><stop offset="0" stop-color="#cfd7e6"/><stop offset=".037" stop-color="#dae0ec"/><stop offset=".126" stop-color="#eef1f6"/><stop offset=".215" stop-color="#fbfcfd"/><stop offset=".3" stop-color="#fff"/><stop offset=".7" stop-color="#fff"/><stop offset=".785" stop-color="#fbfcfd"/><stop offset=".874" stop-color="#eef1f6"/><stop offset=".963" stop-color="#dae0ec"/><stop offset="1" stop-color="#cfd7e6"/></linearGradient><path fill="url(#1f629-c)" d="M42.721 39.037C40.009 37.156 36.509 36 32 36c-4.507 0-8.012 1.154-10.725 3.037-.436.301-.387.963.382.963H42.339c.77 0 .822-.662.382-.963z"/></svg>